<svg width="24" height="24" viewBox="0 0 24 24" fill="none" xmlns="http://www.w3.org/2000/svg">
<path fill-rule="evenodd" clip-rule="evenodd" d="M21.3333 24C22.8 24 24 22.92 24 21.6V4.8C24 3.48 22.8 2.4 21.3333 2.4H20V0H17.3333V2.4H6.66667V0H4V2.4H2.66667C1.18667 2.4 0.0133333 3.48 0.0133333 4.8L0 21.6C0 22.92 1.18667 24 2.66667 24H21.3333ZM8.00002 10.8H5.33335V13.2H8.00002V10.8ZM2.66667 7.2H21.3333V4.8H2.66667V7.2ZM21.3333 9.6V21.6H2.66667V9.6H21.3333ZM16 13.2H18.6667V10.8H16V13.2ZM13.3333 13.2H10.6667V10.8H13.3333V13.2Z" fill="#B9B9BB"/>
</svg>
