<svg width="24" height="24" viewBox="0 0 24 24" fill="none" xmlns="http://www.w3.org/2000/svg">
<path fill-rule="evenodd" clip-rule="evenodd" d="M21.3333 2.4H15.76C15.2 1.008 13.7333 0 12 0C10.2667 0 8.8 1.008 8.24 2.4H2.66667C1.2 2.4 0 3.48 0 4.8V21.6C0 22.92 1.2 24 2.66667 24H21.3333C22.8 24 24 22.92 24 21.6V4.8C24 3.48 22.8 2.4 21.3333 2.4ZM12 2.1C12.2933 2.1 12.5467 2.22 12.7333 2.4C12.8933 2.556 13 2.772 13 3C13 3.492 12.5467 3.9 12 3.9C11.4533 3.9 11 3.492 11 3C11 2.772 11.1067 2.556 11.2667 2.4C11.4533 2.22 11.7067 2.1 12 2.1ZM2.66667 21.6H21.3333V4.8H2.66667V21.6ZM12 6C9.79999 6 7.99999 7.62 7.99999 9.6C7.99999 11.58 9.79999 13.2 12 13.2C14.2 13.2 16 11.58 16 9.6C16 7.62 14.2 6 12 6ZM10.6667 9.6C10.6667 10.26 11.2667 10.8 12 10.8C12.7333 10.8 13.3333 10.26 13.3333 9.6C13.3333 8.94 12.7333 8.4 12 8.4C11.2667 8.4 10.6667 8.94 10.6667 9.6ZM4.00001 18.564V20.4H20V18.564C20 15.564 14.7067 14.268 12 14.268C9.29335 14.268 4.00001 15.552 4.00001 18.564ZM12 16.656C10.2533 16.656 7.99999 17.328 7.07999 18H16.92C16.0133 17.328 13.7467 16.656 12 16.656Z" fill="#B9B9BB"/>
</svg>
